<?xml version="1.0" encoding="UTF-8"?>
<svg width="460px" height="685px" viewBox="0 0 460 685" version="1.1" xmlns="http://www.w3.org/2000/svg" xmlns:xlink="http://www.w3.org/1999/xlink">
    <!-- Generator: Sketch 44.1 (41455) - http://www.bohemiancoding.com/sketch -->
    <title>homer_top-right</title>
    <desc>Created with Sketch.</desc>
    <defs></defs>
    <g id="Page-1" stroke="none" stroke-width="1" fill="none" fill-rule="evenodd">
        <g id="homer_top-right" fill-rule="nonzero">
            <g id="Homer_Simpson" transform="translate(5.000000, 3.000000)">
                <path d="M519.154253,1065.51595 C522.391762,1060.36951 525.368941,1055.09573 528.146719,1049.74443 C538.166658,1030.36569 545.190031,1009.92113 549.067288,988.981024 C552.529124,970.23902 552.797763,951.596678 551.725978,939.922376 C556.641786,936.461888 557.292611,934.645823 557.624948,933.737791 C558.837975,930.238546 556.910424,920.236351 554.675463,912.055757 C552.13586,902.8647 547.28375,888.291893 538.249742,870.945158 C525.028297,845.523028 507.680343,823.099065 486.693306,804.301694 C482.976679,800.968552 479.102191,797.732303 475.14739,794.642779 C466.260163,770.3723 448.779275,723.326272 438.396535,700.694679 C441.888836,698.726354 447.785035,694.615294 446.012575,690.066828 C438.463003,670.945555 422.926281,648.325036 407.539111,631.072427 C393.666841,615.525146 380.846968,604.81978 374.6849,601.724719 C374.446725,598.948024 374.00361,595.659176 373.463564,591.758514 C372.832125,587.318015 372.186839,582.708645 371.81573,578.17679 C371.513858,574.37579 371.350459,569.974049 371.220294,565.295469 C370.716251,549.288635 370.259288,541.185556 365.958303,535.89793 C360.383361,529.026785 336.640703,517.30542 317.788927,512.975657 C318.340052,508.706799 319.040727,505.174332 319.832796,502.663402 C327.728552,494.563092 332.472652,485.286215 336.067423,476.975507 C341.232483,475.917982 345.721792,473.016708 348.779286,468.653725 C352.335284,463.606949 354.066203,456.755183 352.678699,447.940627 C385.541218,442.857862 408.494578,430.574514 411.391443,416.342218 C412.795563,409.462768 410.532907,403.6796 401.221952,397.605751 C401.116712,385.325171 397.47763,371.699153 391.157702,359.986093 C383.513967,345.867301 372.195147,334.910012 358.256409,328.10254 C361.862258,326.239413 365.108076,323.916733 367.830464,321.1871 C374.374719,314.603868 377.49868,306.290391 376.856163,297.104871 C376.626297,293.602857 375.911774,290.427513 374.767984,287.576071 C381.110068,280.372719 385.657536,272.690436 388.327304,264.692555 C390.913988,256.918915 391.730982,248.835215 390.733973,240.682305 C388.341152,220.882776 376.055787,205.526514 367.262723,198.890682 C373.086916,189.024138 374.083925,181.031795 371.680026,174.780769 C368.705616,167.007128 361.045265,163.377768 356.666734,161.891143 C355.104753,153.167944 348.358327,128.731361 332.400646,103.544545 C322.859825,88.4152907 311.593625,75.6613157 298.964846,65.6342053 C284.314355,53.9958916 267.750161,46.0173902 249.740303,41.9146355 C239.230168,17.7991859 224.299961,7.67241351 213.493492,3.45615479 C201.041959,-1.41898087 187.094913,-1.12829987 175.213891,4.27559837 C164.36865,9.26146965 156.029779,16.1741407 150.352367,24.9222547 C146.034765,24.2356938 141.68116,24.0363697 137.466028,24.3464295 C122.973396,25.4288701 110.388929,32.3415412 101.111208,44.342514 C95.7882881,51.2358063 92.2101341,58.776902 90.4210571,66.7609402 C88.8673849,73.7400527 88.6735221,81.0818242 89.8920885,88.6146148 C90.379515,91.6792231 91.0497265,94.6081802 91.8694894,97.3378132 C85.6160283,106.675594 80.5229747,116.807904 76.7924998,127.557564 C72.2754958,140.643746 69.7718958,153.848968 69.1432263,167.959455 C68.5727157,180.522411 69.5447993,193.503394 72.0456299,207.663711 C76.7121852,233.84438 86.222542,260.362793 95.4116403,285.989783 C95.8132133,287.086066 96.2397115,288.223875 96.6246677,289.333999 C89.4711292,282.568053 78.8640627,273.072473 77.2051507,274.370849 C75.2803697,275.890695 75.1031237,288.578229 75.1612826,295.73175 C75.2803697,311.414682 77.1525308,327.097614 79.1520875,326.740492 C81.0214791,326.411053 77.9169043,297.700075 79.8527632,279.406551 C82.6056154,281.444086 93.6918,292.030412 99.5824607,297.611487 C102.728578,306.492483 105.852539,315.481447 108.680167,324.459338 C106.099021,325.173583 103.567727,326.283707 101.185983,327.784175 C89.4074314,335.12041 83.5804685,349.402536 87.0090712,362.494255 C88.9698553,370.024277 92.4510779,376.156262 97.2838014,380.701959 C101.604173,384.741041 106.946479,387.351633 112.673741,388.25136 C115.786624,388.735828 118.608713,388.755207 121.153855,388.434074 C123.917785,407.912469 124.565841,441.487509 123.062019,466.109574 C104.863838,465.423013 101.155519,477.551332 96.3809545,501.522825 C95.5999642,505.553602 94.8882106,509.0307 94.1930739,511.303549 C90.6426146,522.604119 83.2038207,528.434349 82.6194627,547.431045 C82.4532946,553.341559 85.8846668,559.539985 93.0409748,566.253332 C89.977942,573.271202 84.1315928,590.786808 82.4255999,598.125812 C79.013614,598.651806 75.5462388,599.338367 72.0622467,600.199336 C49.7707903,605.64476 32.1818923,620.342145 19.7358984,643.859623 C5.89963101,670.045828 1.80635574,700.697448 0.82319423,721.78151 C-0.331674365,745.739161 2.12207522,769.66636 7.02957438,782.724858 C8.96820272,787.91559 20.7439851,792.120776 26.3216958,792.8018 C29.5176631,805.536396 33.8878853,821.811764 39.0058641,840.04992 C32.9434963,848.980748 26.9586737,862.448968 21.1760223,880.047626 C16.1715917,895.290384 11.5022669,913.107745 7.71086377,931.653193 C4.24348851,948.545912 1.71773273,964.857269 0.621022989,977.638928 C-1.24282968,998.883556 1.58202875,1001.50522 2.6427354,1002.4797 C5.17403011,1004.85221 9.84058547,1007.12505 16.5897816,1009.30931 C22.5607568,1036.38694 36.8179835,1065.10899 58.9875833,1094.70309 C80.7666879,1123.77119 104.730904,1146.46922 121.256326,1160.6157 C125.853644,1214.72943 128.155073,1265.40481 128.155073,1312.21276 C128.155073,1346.9699 528.902784,1132.80721 519.154253,1065.51595 Z M176.897728,7.92433704 C187.773433,2.96891806 200.596075,2.68931062 212.042291,7.19071356 C221.729893,10.9944821 235.020575,19.9197731 244.877116,40.890331 C222.793369,36.6214729 201.473997,36.2837293 181.614134,39.8189639 C176.041962,34.835861 169.356464,30.7912425 162.18077,28.0809882 C159.707634,27.1452722 157.1708,26.3701229 154.620119,25.7721506 C159.876571,18.2864227 167.318135,12.3039308 176.897728,7.92433704 M152.32146,29.3932053 C161.048057,31.2314166 169.539249,35.1819098 176.5737,40.8128161 C165.836469,43.1105802 155.511888,46.5489212 145.785513,51.1499862 C146.181547,46.5212373 147.089933,41.8841832 148.679608,37.3827803 C149.66277,34.5811691 150.889644,31.9013671 152.32146,29.3932053 M93.8413513,87.9889585 C91.412527,72.7628108 94.9380611,58.8959428 104.265633,46.8008448 C112.853756,35.7272828 124.427368,29.3406059 137.778978,28.3439853 C141.193733,28.0837566 144.683264,28.2027974 148.145101,28.667887 C146.898839,31.0182505 145.813208,33.4738129 144.910361,36.0567212 C143.002197,41.435704 141.905487,47.1773459 141.636848,53.1875216 C139.911469,54.0734066 138.252557,54.9731335 136.588106,55.9226914 C120.040529,65.3241455 105.860847,78.0255211 94.8743633,93.0551131 C94.4644819,91.4272995 94.1349151,89.7192026 93.8413513,87.9889585" id="Shape" fill="#010101"></path>
                <path d="M138.549369,375.115473 C136.63995,373.909331 129.782645,387.262845 113.552583,384.720243 C103.020338,383.056599 95.1170036,374.965745 91.8626894,362.482871 C88.9515171,351.414095 93.899403,339.327723 103.883728,333.091831 C108.184071,330.407819 112.752841,329.25436 117.252428,329.559361 C126.650091,330.199864 133.070167,336.410801 134.166007,335.146431 C135.62436,333.435651 126.948956,325.145159 117.16941,324.646066 C115.987784,324.593384 114.795089,324.634975 113.610696,324.740339 C111.629328,318.357493 109.465319,312.005146 107.279173,305.658345 C112.481648,310.161275 116.80413,313.330516 118.090912,312.587422 C120.526113,311.23987 119.762346,298.39654 118.979207,286.202032 C118.414683,277.068627 117.736701,259.378548 118.312294,254.307208 C121.201328,257.559631 125.612363,263.27702 130.565784,270.01755 C144.922401,289.532092 159.779895,312.762104 161.586925,311.589235 C163.723261,310.244457 148.677592,287.92113 134.152171,268.109906 C127.109458,258.53009 119.125873,247.622132 116.391806,248.323636 C112.387561,249.382822 114.377231,276.932763 114.991565,286.457124 C115.348544,292.193922 115.987784,303.728519 115.769169,307.488354 C112.730703,305.369981 108.72369,301.831965 104.581081,297.916856 C103.092287,293.738338 101.606261,289.57091 100.136839,285.458937 C90.5869761,258.799046 81.5656628,233.619797 76.9664534,207.797273 C74.528485,193.975166 73.6097501,181.325928 74.1493685,169.11201 C74.7526342,155.461813 77.1823008,142.660074 81.5379901,130.008063 C84.698217,120.838613 88.9044735,112.115575 94.0045594,104.008084 C99.0216272,116.804277 106.310627,124.38772 107.478417,123.494898 C109.338025,122.053073 101.548148,113.729309 96.7524625,99.8157016 C107.625082,83.955631 122.056416,70.6187534 139.091755,60.9058466 C139.941308,60.401208 140.80193,59.9270695 141.687458,59.4612492 C141.745571,61.5435767 141.903305,63.6453133 142.160662,65.7775501 C143.771215,79.5053839 150.360094,93.8959025 152.582216,92.7701703 C154.779431,91.6721654 145.722143,77.9055132 145.669565,57.4011037 C174.725942,42.9717667 209.197874,39.2978867 245.922368,46.7759655 C264.288765,50.5413459 281.102722,58.4159264 295.927009,70.2111607 C308.105782,79.9185221 318.997772,92.2793954 328.270907,106.974915 C345.068261,133.609852 351.289092,159.534968 352.044558,165.008356 C352.160784,165.967723 352.852602,166.760727 353.774105,167.029683 C356.917728,167.914187 364.491757,170.734063 367.068089,177.452411 C369.049457,182.662389 367.729467,189.294782 363.133025,197.202635 C349.66747,189.217145 334.577525,186.729998 319.357518,190.05174 C303.01123,193.625801 287.55047,203.743528 278.540226,216.703313 C273.124671,208.177139 265.843973,201.331245 256.991464,196.487268 C241.384038,187.974958 221.456898,186.23645 203.729741,191.804111 C191.454113,195.677628 173.881924,206.59945 164.796963,224.644439 C157.474756,239.143095 156.84105,255.491168 162.937355,273.247792 C169.993904,293.779929 185.598562,303.473427 197.478469,307.987447 C211.483643,313.275061 227.838232,314.18452 241.237373,310.374776 C257.924035,305.636164 271.696758,294.744842 280.112038,279.67223 C290.428435,284.871117 315.151261,278.951317 316.249869,278.687907 C319.551227,277.886585 348.823451,271.195965 363.490004,281.970831 C368.678642,285.772257 371.429313,291.206827 371.932957,298.573996 C372.464273,306.332121 369.829828,313.37488 364.306349,318.917586 C356.945401,326.34021 345.134675,330.324637 332.720684,329.553815 L323.002018,328.866176 C309.19332,327.879081 290.287304,326.501029 275.249937,326.958531 L271.245692,327.038941 C259.487545,327.208078 237.592873,327.526943 215.363361,336.02539 C187.97565,346.520209 168.469136,366.170615 157.422178,394.46365 C144.047942,428.651529 155.891875,455.976878 168.192408,472.86009 C179.546533,488.478932 196.568036,502.298266 216.129896,511.758854 C234.952893,520.858985 254.506452,525.309233 271.184812,524.272228 C288.507947,523.204723 302.374757,518.474429 313.38574,509.887255 C311.71154,519.198114 311.194059,533.649633 312.223485,547.615923 C313.178195,560.401025 316.200058,583.550628 326.032183,597.001188 C321.491086,605.21127 317.503444,612.309484 315.054407,616 C308.794833,610.094065 293.776837,588.078512 283.521319,573.011445 C273.716868,558.659745 268.074396,550.441344 265.763722,548.345153 C265.498064,548.123334 250.410886,542.680446 246.960095,541.488168 C224.182663,533.505451 189.743938,521.455124 161.509441,508.916796 C144.122659,501.200262 132.865388,494.950506 125.642803,489.945711 C129.702394,468.429252 129.832456,415.250879 126.016385,388.62426 C136.208255,385.2332 140.22357,376.188523 138.549369,375.115473" id="Shape" fill="#F4DE12"></path>
                <path d="M118.720655,345.098757 C109.154066,341.454508 102.425509,347.962095 103.038752,348.922803 C103.831689,350.213586 110.212267,346.628375 116.196376,348.364626 C113.743405,350.345079 111.795289,353.294291 111.053693,356.471603 C108.982929,365.346073 117.468498,371.021763 118.680722,369.846372 C120.7686,367.809564 113.372607,364.645669 115.083982,357.2874 C115.845544,354.018847 118.210094,351.485584 120.315086,350.409484 C125.908431,354.483099 127.808058,363.760101 130.146937,363.14557 C132.72541,362.480052 129.610707,349.244827 118.720655,345.098757" id="Shape" fill="#010101"></path>
                <path d="M372.935551,613.491577 C374.2629,612.360133 374.915467,610.580143 375.095964,608 C381.48279,612.160796 392.85134,622.32976 404.239328,635.266973 C415.363513,647.872894 430.225379,667.127106 440,689.138336 C430.214272,688.840735 410.195738,693.172792 401.987278,696 C394.137036,679.146248 386.047982,664.552578 379.033581,652.954569 C370.46968,638.717458 361.811366,626.091884 354,615.748851 C362.447272,617.579377 369.636616,616.251404 372.935551,613.491577" id="Shape" fill="#FFFFFF"></path>
                <path d="M366.081615,549.170351 C366.669652,553.942371 366.854464,560.04771 367.050476,565.928547 C367.207286,570.621171 367.355695,575.026323 367.658114,578.894863 C368.033338,583.535468 368.741782,588.373196 369.357821,592.646933 C370.094267,597.744754 372.071192,606.883597 370.251077,609.106707 C367.551708,611.302439 358.725553,612.203181 349.031344,608.372971 C343.23218,601.339511 338.082656,595.759834 334,591.913197 C334.543234,590.935795 335.103269,589.92554 335.677305,588.909808 C342.109309,577.506788 358.101114,548.223065 364.40991,542 C364.857938,542.895267 365.560783,544.858284 366.081615,549.170351" id="Shape" fill="#FFFFFF"></path>
                <path d="M360,537.713047 C353.468767,544.231114 339.327297,570.903157 331.210258,585.749563 C330.41463,587.162723 329.63535,588.600533 328.875144,590 C322.897036,580.57345 318.883474,564.998555 317.461153,545.570331 C316.744543,535.50019 316.916202,525.870978 317.611014,518 C329.373774,520.834538 350.125494,528.390567 360,537.713047" id="Shape" fill="#FFFFFF"></path>
                <path d="M388.023683,361.656438 C394.237004,373.055281 397.683607,386.364514 397.522655,398.169176 C397.497679,399.022226 397.961111,399.828344 398.704823,400.278335 C403.594449,403.210176 409.147309,408.068971 407.793088,414.595215 C404.98197,428.307507 379.379424,438.585514 350.538403,442.640951 C329.065122,445.650091 295.62863,444.821888 263.252204,440.457254 C228.888848,435.835878 200.652787,428.020396 185.451102,418.979173 C188.134568,414.3716 193.279498,411.939442 192.846591,410.876581 C192.338758,409.6536 182.956338,412.593723 180.564251,420.050317 C177.983461,428.169473 182.745435,435.902134 183.924828,435.488033 C184.34386,435.333435 183.07844,428.936942 183.861002,423.650242 C199.836924,432.810174 228.297764,440.656023 262.611169,445.266357 C294.238333,449.526084 326.981064,450.448151 348.895578,447.748207 C349.994495,454.614015 348.962179,460.532911 345.862456,464.947236 C343.334392,468.552683 339.460432,470.888217 335.045339,471.47072 C334.193401,471.581147 333.460789,472.141565 333.130559,472.920077 C329.276025,481.994428 324.050619,492.41599 314.626573,500.880232 C303.909358,510.498437 289.898166,515.740966 271.793786,516.861801 C255.88169,517.841842 237.141826,513.584876 219.009695,504.872173 C200.095003,495.781258 183.672299,482.568649 172.74418,467.660984 C161.138951,451.814687 149.969403,426.214912 162.543123,394.232448 C187.27153,331.413202 248.991259,330.504939 272.246118,330.162615 L276.339307,330.090837 C291.13861,329.635325 309.981152,330.990818 323.717614,331.981902 L333.513515,332.661029 C340.534374,333.088934 347.391505,332.139261 353.5632,330.016299 C367.657643,336.341014 380.497767,347.786788 388.023683,361.656438" id="Shape" fill="#D2B16B"></path>
                <path d="M386.624587,241.460089 C387.535501,249.019051 386.787448,256.52821 384.394229,263.721951 C382.050696,270.76075 378.125486,277.558835 372.70693,284 C371.061764,281.379818 368.94734,279.133157 366.38298,277.237883 C350.290171,265.42078 320.96427,271.76234 315.236554,273.162352 C304.990155,275.658027 288.546782,277.58927 282.531991,274.534697 C288.604749,261.48359 290.255436,246.819426 286.893336,234.631568 C285.430353,229.319267 283.445665,224.372187 281,219.826296 C287.622067,209.533713 301.677742,197.392891 320.315589,193.336728 C335.249053,190.074643 350.047261,192.811031 363.10093,201.238776 C371.219104,206.473606 384.214806,221.533426 386.624587,241.460089" id="Shape" fill="#FFFFFF"></path>
                <path d="M282.433955,236.154835 C285.787863,248.528619 283.684098,263.696214 276.800049,276.743306 C269.004552,291.53653 255.913844,302.194915 239.940096,306.807495 C227.416634,310.41151 212.078973,309.53146 198.911164,304.469076 C187.893931,300.244836 173.398878,291.176129 166.872799,271.95751 C161.214111,255.133186 161.751067,239.708561 168.519464,226.102707 C177.01438,209.054878 193.434214,198.728957 204.916808,195.060684 C221.567946,189.763621 240.220966,191.411968 254.812396,199.463729 C268.404263,206.987459 277.956569,219.671356 282.433955,236.154835" id="Shape" fill="#FFFFFF"></path>
                <path d="M123,472 C122.602672,477.334497 122.100784,482.085321 121.504792,486 C115.48998,480.969556 114,477.5191 114,475.341865 C114,473.009889 115.48998,472 123,472" id="Shape" fill="#FFFFFF"></path>
                <path d="M88.0040774,548.476381 C88.5761853,529.539445 95.7759007,524.975927 99.3273918,513.56713 C101.245473,507.415818 104.070083,485.944519 109.246693,478 C112.010499,487.537865 128.325247,498.694057 159.835403,512.726044 C188.20311,525.364547 222.723051,537.450654 245.5438,545.475673 C252.516883,547.923984 258.550272,550.044744 262.964071,551.663072 C262.986181,551.676951 263,551.69083 263,551.713037 C253.893258,558.305711 246.50284,577.536889 239.355637,596.179584 C236.343088,604.071362 233.454911,611.532881 230.729798,617.248383 C227.181071,624.690471 225.047412,626.539195 224.04415,626.969454 C222.435615,627.285903 213.160281,625.262299 189.275467,615.299727 C172.239365,608.182415 154.846732,599.926999 147.951036,595.657722 C145.032456,593.847859 140.964133,591.641048 136.257371,589.084478 C118.057707,579.21351 87.5950341,562.713782 88.0040774,548.476381" id="Shape" fill="#FFFFFF"></path>
                <path d="M97.3060874,569.021308 C98.5729572,570.033981 99.8869534,571.082623 101.309063,572.125731 C111.482832,579.615633 123.949163,586.341881 133.970464,591.715133 C138.627666,594.235746 142.644502,596.407735 145.455456,598.145326 C152.834904,602.677451 170.468512,610.980812 188.359929,618.365573 C220.929849,631.82637 224.819167,630.274159 226.097125,629.753989 C231.951893,627.413221 236.792057,615.499102 244.232491,596.274926 C250.602878,579.745676 258.448045,559.428589 266.420732,554 C269.750076,558.485088 274.834189,565.903052 280.104034,573.611537 C297.213707,598.601859 309.729937,616.509007 315.09958,619.34781 C316.119729,619.909484 317.417092,619.643865 318.140622,618.7391 C320.56902,615.748119 325.664221,606.725374 331.859963,595.54724 C340.331635,603.936374 356.859157,623.423402 375.28837,653.62373 C390.49358,678.533813 410.868838,717.452532 422.777969,762.92042 C403.894124,755.131696 389.337596,752.176684 388.896825,753.717828 C387.915486,757.267715 411.778102,760.748431 443.125506,778.074538 C457.316111,785.896464 470.500428,795.14886 482.570343,805.726583 C503.003816,823.650333 520.041413,845.074166 533.170287,869.428109 C542.66488,887.019835 547.812752,901.919402 550.485098,911.343343 C553.925329,923.492646 554.257986,930.155256 553.875431,931.328406 C553.559406,932.208269 550.4352,937.288233 519.165416,950.627288 C498.191374,959.561494 470.167771,969.80166 440.306236,979.419282 C408.057884,989.77289 376.241988,998.615789 348.246106,1005.00725 C317.203637,1012.07659 292.570366,1015.77312 274.992201,1016 C270.15481,998.643458 263.35474,974.69071 255.892129,948.405495 C237.543308,883.638727 214.068792,800.804331 201.932346,754.705598 C208.388669,752.20712 221.481505,744.221948 221.481505,735.03319 C221.481505,729.538197 217.217948,709.378821 206.961015,685.500779 C198.134509,664.909771 182.446946,636.372329 157.988319,617.217325 C137.219417,600.945393 113.739357,594.122305 88,596.8449 C89.8850579,589.615082 94.5200827,575.825029 97.3060874,569.021308" id="Shape" fill="#FFFFFF"></path>
                <path d="M6.26327038,722.170996 C7.26454032,701.595826 11.2418071,671.738457 24.7255757,646.339642 C36.5294358,624.129853 53.1560796,610.286766 74.1215598,605.172706 C104.565729,597.743629 132.045026,603.380435 155.763999,621.881216 C195.709107,653.060661 213.598463,711.511404 217,730.723009 C206.870486,724.574521 192.196318,721.352304 173.211128,721.119972 C154.014558,720.895938 131.274605,723.783487 107.511131,729.486673 C69.0734905,738.71632 24.4696956,756.730312 10.5826377,776 C6.98084717,762.884332 5.31206393,742.599576 6.26327038,722.170996" id="Shape" fill="#FFFFFF"></path>
                <path d="M204.995872,249 C199.472272,249 195,253.479296 195,258.99037 C195,264.515202 199.472272,269 204.995872,269 C210.511215,269 215,264.515202 215,258.99037 C214.997248,253.482047 210.508463,249 204.995872,249" id="Shape" fill="#010101"></path>
                <path d="M343.979511,241 C339.01032,241 335,245.02459 335,250 C335,254.972678 339.01032,259 343.979511,259 C348.945971,259 353,254.972678 353,250 C353,245.02459 348.945971,241 343.979511,241" id="Shape" fill="#010101"></path>
                <path d="M142.813375,529.230015 C143.624395,514.692146 146.166148,509.292286 148,507.274694 C124.315994,495.774422 111.824618,486.280532 109.42779,478 C104.207721,485.997509 101.359397,507.703433 99.4224257,513.910329 C95.8411186,525.427415 88.5809591,530.034249 88.0040481,549.159337 C87.6473109,561.676812 110.941136,575.954075 129.073419,586 C127.476463,567.309255 141.589878,551.104071 142.813375,529.230015" id="Shape" fill="#B5D9D9"></path>
                <path d="M109,602.583527 C97.7179506,601.289126 85.9141719,602.146528 73.6052268,605.172328 C52.8050696,610.286316 36.3029674,624.12921 24.5847634,646.352517 C11.2047551,671.737149 7.26004053,701.5941 6.25798916,722.168982 C5.32218912,742.60834 6.97295143,762.895578 10.5477628,776 C21.6365792,760.533574 52.3606336,745.863702 83.7830874,735.917838 C68.443144,648.899831 94.4937191,613.859746 109,602.583527" id="Shape" fill="#B5D9D9"></path>
                <path d="M145,599.293793 C142.229322,597.603985 138.536946,595.576782 134.319483,593.268889 C124.217121,587.748659 111.662485,580.861839 101.412093,573.181149 C99.9736868,572.120766 98.6525872,571.046207 97.376176,570 C94.5691886,576.971877 89.9188064,591.116935 88,598.511264 C106.14068,596.560613 123.178116,599.404368 138.925176,607 C141.064632,603.957778 143.424735,600.839004 145,599.293793" id="Shape" fill="#B5D9D9"></path>
                <path d="M265.3175,566.025292 C273.850582,568.348638 286.047709,589.890661 299,603 C293.283108,595.272763 286.279438,585.102335 278.196183,573.30856 C273.027262,565.725681 268.03282,558.423346 264.753172,554 C258.540107,558.246304 252.411555,571.712451 247,585.235798 C254.614344,574.50428 263.5918,565.543191 265.3175,566.025292" id="Shape" fill="#B5D9D9"></path>
                <path d="M170.034782,417.531067 C173.281053,382.47028 191.213499,358.842658 204.939155,346 C188.125922,355.259623 172.41798,370.422013 162.565018,395.340521 C149.941869,427.300975 161.156259,452.892509 172.796618,468.711375 C183.757655,483.60621 200.2535,496.812964 219.224418,505.898814 C237.410217,514.601259 256.216873,518.84077 272.178169,517.861573 C275.95342,517.632634 279.556057,517.229921 283,516.623095 C237.262659,513.255207 164.825715,473.883193 170.034782,417.531067" id="Shape" fill="#92572A"></path>
                <path d="M406.795725,415.130696 C408.139586,408.574913 402.59512,403.669886 397.715656,400.718533 C396.973069,400.273885 396.510338,399.454065 396.535275,398.603675 C396.704297,386.728786 393.260133,373.336535 387.050663,361.847935 C379.522269,347.885978 366.720952,336.355692 352.639504,330 C349.874197,330.953215 346.981432,331.67021 344,332.137091 C353.778322,337.909182 381.863636,358.582549 380.408941,405.026064 C380.408941,405.026064 397.119924,418.693441 387.751688,433 C398.206097,428.142217 405.388134,422.075547 406.795725,415.130696" id="Shape" fill="#E7D8A7"></path>
                <path d="M320.836143,465.499749 C308.725906,466.144301 316.36639,472.459813 319.288491,472.789005 C321.406036,473.026909 320.973029,489.48652 312,503 C312.701192,502.43567 313.366068,501.84921 314.067261,501.243386 C323.54593,492.756312 328.814651,482.318982 332.694955,473.226084 C333.035774,472.43215 333.776077,471.881652 334.628123,471.773765 C339.06994,471.190071 342.953038,468.855296 345.511971,465.223116 C348.632418,460.824666 349.671635,454.896439 348.579339,448 C343.701722,448.591993 338.282146,449.01524 332.454706,449.264209 C331.817766,455.355648 328.920808,465.048838 320.836143,465.499749" id="Shape" fill="#E7D8A7"></path>
                <path d="M216.836229,510.031653 C197.150825,500.594804 180.018677,486.795245 168.602813,471.196346 C156.237484,454.332373 144.314867,427.06821 157.763312,392.936103 C168.881249,364.689224 188.505397,345.065338 216.073315,334.601481 C218.840966,333.552327 221.591911,332.627742 224.36513,331.80835 C182.747347,340.046562 159.099803,370.073404 156.88067,370.189669 C154.917699,370.29763 152.706919,332.11839 141.870202,284.131361 C138.295088,279.059988 134.5195,273.747781 130.74948,268.679177 C125.765481,261.949643 121.327216,256.249886 118.420348,253 C117.841201,258.065836 118.528937,275.718751 119.099731,284.856633 C119.873782,297.003567 120.647833,309.825945 118.194815,311.190675 C116.900089,311.924252 112.56206,308.760181 107.319116,304.272903 C109.515974,310.576131 111.696125,316.945797 113.698078,323.318231 C114.88143,323.199198 116.081488,323.171515 117.270408,323.224111 C126.330706,323.667026 134.458244,330.748123 134.5195,333.192458 C139.748522,340.755225 133.107831,343.946979 128.767018,340.575291 C125.651323,338.191857 116.045291,332.619438 107.252292,336.622278 C98.6458443,340.542073 93.3416442,349.859889 91,355.886296 C91.0863151,357.619199 91.3452603,359.310579 91.8018948,361.00196 C95.0623768,373.456165 103.031206,381.542125 113.625685,383.197518 C129.955938,385.735972 136.858359,372.404243 138.779566,373.608417 C140.461317,374.679716 136.421215,383.715174 126.158076,387.103471 C130.006057,413.692189 129.880761,466.786578 125.79054,488.273473 C132.333779,492.760751 142.170913,498.27227 156.827768,504.940903 C157.27048,486.380013 155.817046,471.581128 158.083513,474.10851 C186.659368,506.037117 219.503643,516.95773 245,520 C235.73366,517.882315 226.200022,514.530005 216.836229,510.031653 M129.468676,363.393698 C127.188288,364.022084 125.339475,354.457896 119.876566,350.255744 C117.818926,351.365799 115.50791,353.992836 114.764487,357.350682 C113.099441,364.941131 120.310926,368.210395 118.272777,370.305935 C117.103347,371.510109 108.8171,365.674709 110.841328,356.509144 C111.556908,353.231576 113.453055,350.175466 115.850386,348.146363 C110.017158,346.355327 103.788552,350.056432 102.992225,348.730457 C102.407511,347.733899 108.973024,341.018206 118.311758,344.785748 C128.967492,349.054338 131.988519,362.707181 129.468676,363.393698" id="Shape" fill="#EF9C20"></path>
                <path d="M96.8567512,98.1942765 C101.674366,112.049802 109.491523,120.333296 107.628972,121.780146 C106.458622,122.660958 99.1335121,115.10365 94.0935029,102.37468 C88.9700958,110.442804 84.7446055,119.115622 81.5699278,128.255078 C77.1887615,140.859795 74.7563246,153.602571 74.1503003,167.201308 C73.6082144,179.358717 74.5283705,191.946867 76.977487,205.72508 C81.5977271,231.448091 90.660292,256.522229 100.256603,283.062545 C101.729965,287.162875 103.225566,291.301861 104.715607,295.482265 C108.885499,299.356179 112.899715,302.898754 115.963196,305 C116.18003,301.25586 115.540646,289.750087 115.173696,284.062087 C114.556552,274.569202 112.566124,247.120463 116.580339,246.087787 C119.335248,245.38369 127.34422,256.237829 134.421917,265.783176 C136.003696,267.923079 137.602154,270.093354 139.178373,272.274674 C136.053734,260.343681 131.755966,244.431088 128.951019,235.998491 C108.949437,175.923828 108.360093,90.6121178 142,58 C141.107643,58.469398 140.240306,58.9415572 139.389648,59.4440892 C122.270852,69.1136884 107.767968,82.4059359 96.8567512,98.1942765" id="Shape" fill="#EF9C20"></path>
                <path d="M365.26138,318.226482 C370.80342,312.64591 373.467273,305.569198 372.932833,297.784815 C372.426227,290.37377 369.659383,284.921359 364.440234,281.101606 C349.684657,270.269222 320.243092,276.99767 316.922322,277.788925 C315.820038,278.067535 290.949055,284.015874 280.571996,278.791923 C279.761985,280.249057 278.896302,281.647683 278,283.010089 C283.614412,284.907428 299.937125,288.704892 327.889493,285.007728 C340.382047,283.341636 357.205798,286.175107 361.061009,298.6903 C364.980242,311.406092 351.262928,324.336415 335.502491,328.989214 C347.265756,329.234391 358.271896,325.289264 365.26138,318.226482" id="Shape" fill="#E9E74A"></path>
                <path d="M319.043152,608 C321.071428,604.475636 323.461206,600.18232 326,595.535174 C316.192528,582.020004 313.173571,558.761987 312.229802,545.901541 C311.203246,531.868164 311.716524,517.366729 313.388817,508 C310.712045,510.10626 307.855901,511.975706 304.823146,513.63341 C303.661372,525.986794 301.147414,578.439919 319.043152,608" id="Shape" fill="#E9E74A"></path>
                <path d="M333.403398,158.042351 C333.403398,158.042351 318.446335,158.848257 318.819079,165.591832 C319.088901,170.338644 330.588343,170.55743 340.012656,172.628968 C348.816656,174.545417 353.598354,184.443379 351.684562,191.339274 C355.957214,192.740608 360.129726,194.623824 364.152027,197 C368.772388,189.104339 370.099247,182.47708 368.093659,177.267772 C365.517829,170.560199 357.904386,167.740914 354.744404,166.863003 C353.818106,166.588829 353.117124,165.794001 352.991949,164.838546 C352.24646,159.357833 345.993256,133.485766 329.108493,106.879799 C319.787102,92.2017911 308.846776,79.8501088 296.585155,70.159854 C281.694852,58.3786753 264.787835,50.5079396 246.325862,46.7525851 C234.623358,44.3874872 223.146169,43.1301635 212,43 C255.266164,49.0789109 313.3058,78.1579837 333.403398,158.042351" id="Shape" fill="#E9E74A"></path>
                <path d="M240.152169,172.447448 C261.888224,176.829764 264.921162,188.20105 269.361861,182.3733 C272.125748,178.754302 266.434913,162.954685 241.943124,158.60485 C228.20522,156.176846 213.312299,161.474063 212.12467,167.104216 C210.831051,173.416484 219.565695,168.324985 240.152169,172.447448" id="Shape" fill="#E9E74A"></path>
                <path d="M123,472 C122.602672,477.334497 122.100784,482.085321 121.504792,486 C115.48998,480.969556 114,477.5191 114,475.341865 C114,473.009889 115.48998,472 123,472" id="Shape" fill="#B5D9D9"></path>
                <path d="M366.081615,549.170351 C366.669652,553.942371 366.854464,560.04771 367.050476,565.928547 C367.207286,570.621171 367.355695,575.026323 367.658114,578.894863 C368.033338,583.535468 368.741782,588.373196 369.357821,592.646933 C370.094267,597.744754 372.071192,606.883597 370.251077,609.106707 C367.551708,611.302439 358.725553,612.203181 349.031344,608.372971 C343.23218,601.339511 338.082656,595.759834 334,591.913197 C334.543234,590.935795 335.103269,589.92554 335.677305,588.909808 C342.109309,577.506788 358.101114,548.223065 364.40991,542 C364.857938,542.895267 365.560783,544.858284 366.081615,549.170351" id="Shape" fill="#B5D9D9"></path>
                <path d="M206.964446,299.481288 C195.811338,295.265769 181.134874,286.240057 174.5373,267.129891 C168.76268,250.401201 169.312245,235.059159 176.177627,221.526149 C181.76534,210.555241 190.6895,202.388194 199.437911,197 C188.619564,201.846318 175.81776,211.349992 168.595299,225.558263 C161.741076,239.077379 161.183141,254.424979 166.927076,271.153669 C173.541388,290.269393 188.22343,299.303441 199.387697,303.513402 C212.725118,308.534788 228.26638,309.396232 240.951018,305.819849 C246.708901,304.191442 252.084598,301.787735 257,298.72544 C254.28286,299.931462 251.459712,300.948521 248.541715,301.768283 C235.851498,305.364118 220.296288,304.494337 206.964446,299.481288" id="Shape" fill="#B5D9D9"></path>
                <path d="M315,195 C299.038243,200.03022 287.010879,210.623626 281,219.733516 C281.759416,221.123626 282.485206,222.541209 283.154949,224 C289.286327,215.736264 296.364873,205.32967 315,195" id="Shape" fill="#B5D9D9"></path>
                <path d="M283,275.413804 C289.006674,278.512639 305.427856,276.539377 315.660428,274.021573 C316.71897,273.76053 318.576931,273.336686 321,272.867931 C298.492202,275.206092 288.84679,272.045504 285.541603,269 C284.797316,271.166939 283.95379,273.311423 283,275.413804" id="Shape" fill="#B5D9D9"></path>
                <path d="M551.725978,940.279011 C556.641786,936.81721 557.292611,935.000457 557.624948,934.09208 C558.837975,930.591507 556.910424,920.585517 554.675463,912.401819 C552.13586,903.207275 547.28375,888.628938 538.249742,871.275622 C525.028297,845.843846 507.680343,823.411374 486.693306,804.606871 C482.976679,801.272464 479.102191,798.034987 475.14739,794.944291 C466.260163,770.664603 448.779275,723.600724 438.396535,700.960545 C441.888836,698.991472 447.785035,694.878852 446.012575,690.328661 C438.463003,671.200133 422.926281,648.571031 407.539111,631.311875 C393.666841,615.758695 380.846968,605.049267 374.6849,601.953032 C374.446725,599.175283 374.00361,595.885187 373.463564,591.983045 C372.832125,587.540862 372.186839,582.929743 371.81573,578.396168 C371.513858,574.593725 371.350459,570.190314 371.220294,565.509959 C370.716251,549.497052 370.259288,541.390898 365.958303,536.101266 C360.383361,529.227514 336.640703,517.501701 317.788927,513.170296 C318.340052,508.899818 319.040727,505.366011 319.832796,502.854128 C327.728552,494.750744 332.472652,485.470348 336.067423,477.156486 C341.232483,476.09856 345.721792,473.196186 348.779286,468.831547 C352.335284,463.782856 354.066203,456.92849 352.678699,448.11059 C385.541218,443.025896 408.494578,430.737887 411.391443,416.500191 C412.795563,409.618131 410.532907,403.832769 401.221952,397.756615 C401.116712,385.471375 397.47763,371.840187 391.157702,360.122683 C383.513967,345.998534 372.195147,335.037087 358.256409,328.227032 C361.862258,326.363198 365.108076,324.039637 367.830464,321.308968 C374.374719,314.723238 377.49868,306.406607 376.856163,297.217602 C376.626297,293.714259 375.911774,290.537711 374.767984,287.685186 C381.110068,280.479101 385.657536,272.793903 388.327304,264.792988 C390.913988,257.016398 391.730982,248.92963 390.733973,240.773627 C388.341152,220.966586 376.055787,205.604497 367.262723,198.966147 C373.086916,189.09586 374.083925,181.100484 371.680026,174.847086 C368.705616,167.070496 361.045265,163.439759 356.666734,161.952569 C355.104753,153.226061 348.358327,128.780206 332.400646,103.583833 C322.859825,88.4488381 311.593625,75.6900239 298.964846,65.6591089 C284.314355,54.0163794 267.750161,46.0348507 249.740303,41.9305392 C239.230168,17.8059395 224.299961,7.67532466 213.493492,3.45746616 C201.041959,-1.41951928 187.094913,-1.12872798 175.213891,4.27722067 C164.36865,9.26498374 156.029779,16.1802777 150.352367,24.9317109 C146.034765,24.2448896 141.68116,24.0454899 137.466028,24.3556672 C122.973396,25.4385186 110.388929,32.3538126 101.111208,44.3593389 C95.7882881,51.2552468 92.2101341,58.7992038 90.4210571,66.7862714 C88.8673849,73.7680319 88.6735221,81.1125892 89.8920885,88.6482379 C90.379515,91.714009 91.0497265,94.6440775 91.8694894,97.3747462 C85.6160283,106.71607 80.5229747,116.852224 76.7924998,127.605963 C72.2754958,140.69711 69.7718958,153.907343 69.1432263,168.023184 C68.5727157,180.590907 69.5447993,193.576815 72.0456299,207.742505 C76.7121852,233.933108 86.222542,260.461582 95.4116403,286.098297 C89.4711292,282.675268 78.8640627,273.176086 77.2051507,274.474953 C75.2803697,275.995376 75.1031237,288.687724 75.1612826,295.843959 C75.2803697,311.532842 77.1525308,327.221725 79.1520875,326.864467 C81.0214791,326.534903 77.9169043,297.813032 79.8527632,279.512566 C82.6056154,281.550875 93.6918,292.141217 99.5824607,297.72441 C102.728578,306.608776 105.852539,315.601151 108.680167,324.582448 C106.099021,325.296963 103.567727,326.407509 101.185983,327.908546 C89.4074314,335.247565 83.5804685,349.53511 87.0090712,362.631796 C88.9698553,370.164676 92.4510779,376.298987 97.2838014,380.846409 C101.604173,384.887023 106.946479,387.498606 112.673741,388.398674 C115.786624,388.883327 118.608713,388.902713 121.153855,388.581458 C123.917785,408.067244 124.565841,441.655023 123.062019,466.286431 C104.863838,465.599609 101.155519,477.73253 96.3809545,501.713119 C95.5999642,505.745425 94.8882106,509.223842 94.1930739,511.497553 C90.6426146,522.802411 83.2038207,528.634854 82.6194627,547.638757 C82.4532946,553.551513 85.8846668,559.752292 93.0409748,566.468186 C89.977942,573.488719 84.1315928,591.010971 82.4255999,598.352759 C79.013614,598.878953 75.5462388,599.565774 72.0622467,600.42707 C49.7707903,605.874561 32.1818923,620.577522 19.7358984,644.103923 C5.89963101,670.300064 1.80635574,700.963314 0.82319423,722.055376 C-0.331674365,746.022118 2.12207522,769.958395 7.02957438,783.021848 C8.96820272,788.21455 20.7439851,792.421331 26.3216958,793.102613 C29.5176631,805.842041 33.8878853,822.123584 39.0058641,840.368661 C32.9434963,849.302877 26.9586737,862.776207 21.1760223,880.381543 C16.1715917,895.630085 11.5022669,913.454207 7.71086377,932.006691 C4.24348851,948.90582 1.71773273,965.223365 0.621022989,978.009874 C-1.24282968,999.262564 1.58202875,1001.88522 2.6427354,1002.86007 C5.17403011,1005.23348 9.84058547,1007.50719 16.5897816,1009.69228 C22.5607568,1036.78018 552.797763,951.957743 551.725978,940.279011 Z M176.897728,7.92734378 C187.773433,2.97004456 200.596075,2.69033103 212.042291,7.19344194 C221.729893,10.9986537 235.020575,19.9273312 244.877116,40.9058461 C222.793369,36.6353682 201.473997,36.2974964 181.614134,39.8340725 C176.041962,34.8490788 169.356464,30.8029257 162.18077,28.091643 C159.707634,27.155572 157.1708,26.3801285 154.620119,25.7819293 C159.876571,18.2933611 167.318135,12.3085993 176.897728,7.92734378 M152.32146,29.404358 C161.048057,31.2432668 169.539249,35.1952589 176.5737,40.8283018 C165.836469,43.1269377 155.511888,46.5665833 145.785513,51.1693941 C146.181547,46.5388889 147.089933,41.9000754 148.679608,37.3969645 C149.66277,34.5942903 150.889644,31.9134715 152.32146,29.404358 M93.8413513,88.0223442 C91.412527,72.7904193 94.9380611,58.9182898 104.265633,46.8186024 C112.853756,35.7408388 124.427368,29.3517386 137.778978,28.3547399 C141.193733,28.0944125 144.683264,28.2134984 148.145101,28.6787645 C146.898839,31.0300198 145.813208,33.4865139 144.910361,36.0704023 C143.002197,41.451426 141.905487,47.1952464 141.636848,53.2077026 C139.911469,54.0939237 138.252557,54.993992 136.588106,55.9439102 C120.040529,65.3489315 105.860847,78.0551264 94.8743633,93.0904211 C94.4644819,91.4619899 94.1349151,89.7532448 93.8413513,88.0223442" id="Shape" fill="#010101"></path>
                <path d="M138.549369,375.115473 C136.63995,373.909331 129.782645,387.262845 113.552583,384.720243 C103.020338,383.056599 95.1170036,374.965745 91.8626894,362.482871 C88.9515171,351.414095 93.899403,339.327723 103.883728,333.091831 C108.184071,330.407819 112.752841,329.25436 117.252428,329.559361 C126.650091,330.199864 133.070167,336.410801 134.166007,335.146431 C135.62436,333.435651 126.948956,325.145159 117.16941,324.646066 C115.987784,324.593384 114.795089,324.634975 113.610696,324.740339 C111.629328,318.357493 109.465319,312.005146 107.279173,305.658345 C112.481648,310.161275 116.80413,313.330516 118.090912,312.587422 C120.526113,311.23987 119.762346,298.39654 118.979207,286.202032 C118.414683,277.068627 117.736701,259.378548 118.312294,254.307208 C121.201328,257.559631 125.612363,263.27702 130.565784,270.01755 C144.922401,289.532092 159.779895,312.762104 161.586925,311.589235 C163.723261,310.244457 148.677592,287.92113 134.152171,268.109906 C127.109458,258.53009 119.125873,247.622132 116.391806,248.323636 C112.387561,249.382822 114.377231,276.932763 114.991565,286.457124 C115.348544,292.193922 115.987784,303.728519 115.769169,307.488354 C112.730703,305.369981 108.72369,301.831965 104.581081,297.916856 C103.092287,293.738338 101.606261,289.57091 100.136839,285.458937 C90.5869761,258.799046 81.5656628,233.619797 76.9664534,207.797273 C74.528485,193.975166 73.6097501,181.325928 74.1493685,169.11201 C74.7526342,155.461813 77.1823008,142.660074 81.5379901,130.008063 C84.698217,120.838613 88.9044735,112.115575 94.0045594,104.008084 C99.0216272,116.804277 106.310627,124.38772 107.478417,123.494898 C109.338025,122.053073 101.548148,113.729309 96.7524625,99.8157016 C107.625082,83.955631 122.056416,70.6187534 139.091755,60.9058466 C139.941308,60.401208 140.80193,59.9270695 141.687458,59.4612492 C141.745571,61.5435767 141.903305,63.6453133 142.160662,65.7775501 C143.771215,79.5053839 150.360094,93.8959025 152.582216,92.7701703 C154.779431,91.6721654 145.722143,77.9055132 145.669565,57.4011037 C174.725942,42.9717667 209.197874,39.2978867 245.922368,46.7759655 C264.288765,50.5413459 281.102722,58.4159264 295.927009,70.2111607 C308.105782,79.9185221 318.997772,92.2793954 328.270907,106.974915 C345.068261,133.609852 351.289092,159.534968 352.044558,165.008356 C352.160784,165.967723 352.852602,166.760727 353.774105,167.029683 C356.917728,167.914187 364.491757,170.734063 367.068089,177.452411 C369.049457,182.662389 367.729467,189.294782 363.133025,197.202635 C349.66747,189.217145 334.577525,186.729998 319.357518,190.05174 C303.01123,193.625801 287.55047,203.743528 278.540226,216.703313 C273.124671,208.177139 265.843973,201.331245 256.991464,196.487268 C241.384038,187.974958 221.456898,186.23645 203.729741,191.804111 C191.454113,195.677628 173.881924,206.59945 164.796963,224.644439 C157.474756,239.143095 156.84105,255.491168 162.937355,273.247792 C169.993904,293.779929 185.598562,303.473427 197.478469,307.987447 C211.483643,313.275061 227.838232,314.18452 241.237373,310.374776 C257.924035,305.636164 271.696758,294.744842 280.112038,279.67223 C290.428435,284.871117 315.151261,278.951317 316.249869,278.687907 C319.551227,277.886585 348.823451,271.195965 363.490004,281.970831 C368.678642,285.772257 371.429313,291.206827 371.932957,298.573996 C372.464273,306.332121 369.829828,313.37488 364.306349,318.917586 C356.945401,326.34021 345.134675,330.324637 332.720684,329.553815 L323.002018,328.866176 C309.19332,327.879081 290.287304,326.501029 275.249937,326.958531 L271.245692,327.038941 C259.487545,327.208078 237.592873,327.526943 215.363361,336.02539 C187.97565,346.520209 168.469136,366.170615 157.422178,394.46365 C144.047942,428.651529 155.891875,455.976878 168.192408,472.86009 C179.546533,488.478932 196.568036,502.298266 216.129896,511.758854 C234.952893,520.858985 254.506452,525.309233 271.184812,524.272228 C288.507947,523.204723 302.374757,518.474429 313.38574,509.887255 C311.71154,519.198114 311.194059,533.649633 312.223485,547.615923 C313.178195,560.401025 316.200058,583.550628 326.032183,597.001188 C321.491086,605.21127 317.503444,612.309484 315.054407,616 C308.794833,610.094065 293.776837,588.078512 283.521319,573.011445 C273.716868,558.659745 268.074396,550.441344 265.763722,548.345153 C265.498064,548.123334 250.410886,542.680446 246.960095,541.488168 C224.182663,533.505451 189.743938,521.455124 161.509441,508.916796 C144.122659,501.200262 132.865388,494.950506 125.642803,489.945711 C129.702394,468.429252 129.832456,415.250879 126.016385,388.62426 C136.208255,385.2332 140.22357,376.188523 138.549369,375.115473" id="Shape" fill="#F4DE12"></path>
                <path d="M118.718284,345.098757 C109.152937,341.454508 102.428104,347.962095 103.038415,348.922803 C103.836953,350.213586 110.216704,346.628375 116.197185,348.364626 C113.744532,350.345079 111.793817,353.294291 111.055169,356.471603 C108.984673,365.346073 117.471994,371.021763 118.678357,369.846372 C120.765965,367.809564 113.373782,364.645669 115.084935,357.2874 C115.846399,354.018847 118.213494,351.485584 120.315361,350.409484 C125.910833,354.483099 127.810213,363.760101 130.145937,363.14557 C132.726927,362.480052 129.609776,349.244827 118.718284,345.098757" id="Shape" fill="#010101"></path>
                <path d="M372.935551,613.491577 C374.2629,612.360133 374.915467,610.580143 375.095964,608 C381.48279,612.160796 392.85134,622.32976 404.239328,635.266973 C415.363513,647.872894 430.225379,667.127106 440,689.138336 C430.214272,688.840735 410.195738,693.172792 401.987278,696 C394.137036,679.146248 386.047982,664.552578 379.033581,652.954569 C370.46968,638.717458 361.811366,626.091884 354,615.748851 C362.447272,617.579377 369.636616,616.251404 372.935551,613.491577" id="Shape" fill="#FFFFFF"></path>
                <path d="M366.081615,549.170351 C366.669652,553.942371 366.854464,560.04771 367.050476,565.928547 C367.207286,570.621171 367.355695,575.026323 367.658114,578.894863 C368.033338,583.535468 368.741782,588.373196 369.357821,592.646933 C370.094267,597.744754 372.071192,606.883597 370.251077,609.106707 C367.551708,611.302439 358.725553,612.203181 349.031344,608.372971 C343.23218,601.339511 338.082656,595.759834 334,591.913197 C334.543234,590.935795 335.103269,589.92554 335.677305,588.909808 C342.109309,577.506788 358.101114,548.223065 364.40991,542 C364.857938,542.895267 365.560783,544.858284 366.081615,549.170351" id="Shape" fill="#FFFFFF"></path>
                <path d="M360,537.713047 C353.468767,544.231114 339.327297,570.903157 331.210258,585.749563 C330.41463,587.162723 329.63535,588.600533 328.875144,590 C322.897036,580.57345 318.883474,564.998555 317.461153,545.570331 C316.744543,535.50019 316.916202,525.870978 317.611014,518 C329.373774,520.834538 350.125494,528.390567 360,537.713047" id="Shape" fill="#FFFFFF"></path>
                <path d="M388.023683,361.656438 C394.237004,373.055281 397.683607,386.364514 397.522655,398.169176 C397.497679,399.022226 397.961111,399.828344 398.704823,400.278335 C403.594449,403.210176 409.147309,408.068971 407.793088,414.595215 C404.98197,428.307507 379.379424,438.585514 350.538403,442.640951 C329.065122,445.650091 295.62863,444.821888 263.252204,440.457254 C228.888848,435.835878 200.652787,428.020396 185.451102,418.979173 C188.134568,414.3716 193.279498,411.939442 192.846591,410.876581 C192.338758,409.6536 182.956338,412.593723 180.564251,420.050317 C177.983461,428.169473 182.745435,435.902134 183.924828,435.488033 C184.34386,435.333435 183.07844,428.936942 183.861002,423.650242 C199.836924,432.810174 228.297764,440.656023 262.611169,445.266357 C294.238333,449.526084 326.981064,450.448151 348.895578,447.748207 C349.994495,454.614015 348.962179,460.532911 345.862456,464.947236 C343.334392,468.552683 339.460432,470.888217 335.045339,471.47072 C334.193401,471.581147 333.460789,472.141565 333.130559,472.920077 C329.276025,481.994428 324.050619,492.41599 314.626573,500.880232 C303.909358,510.498437 289.898166,515.740966 271.793786,516.861801 C255.88169,517.841842 237.141826,513.584876 219.009695,504.872173 C200.095003,495.781258 183.672299,482.568649 172.74418,467.660984 C161.138951,451.814687 149.969403,426.214912 162.543123,394.232448 C187.27153,331.413202 248.991259,330.504939 272.246118,330.162615 L276.339307,330.090837 C291.13861,329.635325 309.981152,330.990818 323.717614,331.981902 L333.513515,332.661029 C340.534374,333.088934 347.391505,332.139261 353.5632,330.016299 C367.657643,336.341014 380.497767,347.786788 388.023683,361.656438" id="Shape" fill="#D2B16B"></path>
                <path d="M386.624587,241.460089 C387.535501,249.019051 386.787448,256.52821 384.394229,263.721951 C382.050696,270.76075 378.125486,277.558835 372.70693,284 C371.061764,281.379818 368.94734,279.133157 366.38298,277.237883 C350.290171,265.42078 320.96427,271.76234 315.236554,273.162352 C304.990155,275.658027 288.546782,277.58927 282.531991,274.534697 C288.604749,261.48359 290.255436,246.819426 286.893336,234.631568 C285.430353,229.319267 283.445665,224.372187 281,219.826296 C287.622067,209.533713 301.677742,197.392891 320.315589,193.336728 C335.249053,190.074643 350.047261,192.811031 363.10093,201.238776 C371.219104,206.473606 384.214806,221.533426 386.624587,241.460089" id="Shape" fill="#FFFFFF"></path>
                <path d="M282.433955,236.154835 C285.787863,248.528619 283.684098,263.696214 276.800049,276.743306 C269.004552,291.53653 255.913844,302.194915 239.940096,306.807495 C227.416634,310.41151 212.078973,309.53146 198.911164,304.469076 C187.893931,300.244836 173.398878,291.176129 166.872799,271.95751 C161.214111,255.133186 161.751067,239.708561 168.519464,226.102707 C177.01438,209.054878 193.434214,198.728957 204.916808,195.060684 C221.567946,189.763621 240.220966,191.411968 254.812396,199.463729 C268.404263,206.987459 277.956569,219.671356 282.433955,236.154835" id="Shape" fill="#FFFFFF"></path>
                <path d="M123,472 C122.602672,477.334497 122.100784,482.085321 121.504792,486 C115.48998,480.969556 114,477.5191 114,475.341865 C114,473.009889 115.48998,472 123,472" id="Shape" fill="#FFFFFF"></path>
                <path d="M88.0040774,548.476381 C88.5761853,529.539445 95.7759007,524.975927 99.3273918,513.56713 C101.245473,507.415818 104.070083,485.944519 109.246693,478 C112.010499,487.537865 128.325247,498.694057 159.835403,512.726044 C188.20311,525.364547 222.723051,537.450654 245.5438,545.475673 C252.516883,547.923984 258.550272,550.044744 262.964071,551.663072 C262.986181,551.676951 263,551.69083 263,551.713037 C253.893258,558.305711 246.50284,577.536889 239.355637,596.179584 C236.343088,604.071362 233.454911,611.532881 230.729798,617.248383 C227.181071,624.690471 225.047412,626.539195 224.04415,626.969454 C222.435615,627.285903 213.160281,625.262299 189.275467,615.299727 C172.239365,608.182415 154.846732,599.926999 147.951036,595.657722 C145.032456,593.847859 140.964133,591.641048 136.257371,589.084478 C118.057707,579.21351 87.5950341,562.713782 88.0040774,548.476381" id="Shape" fill="#FFFFFF"></path>
                <path d="M97.3060874,569.021308 C98.5729572,570.033981 99.8869534,571.082623 101.309063,572.125731 C111.482832,579.615633 123.949163,586.341881 133.970464,591.715133 C138.627666,594.235746 142.644502,596.407735 145.455456,598.145326 C152.834904,602.677451 170.468512,610.980812 188.359929,618.365573 C220.929849,631.82637 224.819167,630.274159 226.097125,629.753989 C231.951893,627.413221 236.792057,615.499102 244.232491,596.274926 C250.602878,579.745676 258.448045,559.428589 266.420732,554 C269.750076,558.485088 274.834189,565.903052 280.104034,573.611537 C297.213707,598.601859 309.729937,616.509007 315.09958,619.34781 C316.119729,619.909484 317.417092,619.643865 318.140622,618.7391 C320.56902,615.748119 325.664221,606.725374 331.859963,595.54724 C340.331635,603.936374 356.859157,623.423402 375.28837,653.62373 C390.49358,678.533813 410.868838,717.452532 422.777969,762.92042 C403.894124,755.131696 389.337596,752.176684 388.896825,753.717828 C387.915486,757.267715 411.778102,760.748431 443.125506,778.074538 C457.316111,785.896464 470.500428,795.14886 482.570343,805.726583 C503.003816,823.650333 520.041413,845.074166 533.170287,869.428109 C542.66488,887.019835 547.812752,901.919402 550.485098,911.343343 C553.925329,923.492646 554.257986,930.155256 553.875431,931.328406 C553.559406,932.208269 550.4352,937.288233 519.165416,950.627288 C498.191374,959.561494 470.167771,969.80166 440.306236,979.419282 C408.057884,989.77289 376.241988,998.615789 348.246106,1005.00725 C317.203637,1012.07659 292.570366,1015.77312 274.992201,1016 C270.15481,998.643458 263.35474,974.69071 255.892129,948.405495 C237.543308,883.638727 214.068792,800.804331 201.932346,754.705598 C208.388669,752.20712 221.481505,744.221948 221.481505,735.03319 C221.481505,729.538197 217.217948,709.378821 206.961015,685.500779 C198.134509,664.909771 182.446946,636.372329 157.988319,617.217325 C137.219417,600.945393 113.739357,594.122305 88,596.8449 C89.8850579,589.615082 94.5200827,575.825029 97.3060874,569.021308" id="Shape" fill="#FFFFFF"></path>
                <path d="M6.26327038,722.170996 C7.26454032,701.595826 11.2418071,671.738457 24.7255757,646.339642 C36.5294358,624.129853 53.1560796,610.286766 74.1215598,605.172706 C104.565729,597.743629 132.045026,603.380435 155.763999,621.881216 C195.709107,653.060661 213.598463,711.511404 217,730.723009 C206.870486,724.574521 192.196318,721.352304 173.211128,721.119972 C154.014558,720.895938 131.274605,723.783487 107.511131,729.486673 C69.0734905,738.71632 24.4696956,756.730312 10.5826377,776 C6.98084717,762.884332 5.31206393,742.599576 6.26327038,722.170996" id="Shape" fill="#FFFFFF"></path>
                <path d="M248.995872,213 C243.472272,213 239,217.479296 239,222.99037 C239,228.515202 243.472272,233 248.995872,233 C254.511215,233 259,228.515202 259,222.99037 C258.997248,217.482047 254.508463,213 248.995872,213" id="Shape" fill="#010101"></path>
                <path d="M358.979511,206 C354.01032,206 350,210.02459 350,215 C350,219.972678 354.01032,224 358.979511,224 C363.945971,224 368,219.972678 368,215 C368,210.02459 363.945971,206 358.979511,206" id="Shape" fill="#010101"></path>
                <path d="M142.813375,529.230015 C143.624395,514.692146 146.166148,509.292286 148,507.274694 C124.315994,495.774422 111.824618,486.280532 109.42779,478 C104.207721,485.997509 101.359397,507.703433 99.4224257,513.910329 C95.8411186,525.427415 88.5809591,530.034249 88.0040481,549.159337 C87.6473109,561.676812 110.941136,575.954075 129.073419,586 C127.476463,567.309255 141.589878,551.104071 142.813375,529.230015" id="Shape" fill="#B5D9D9"></path>
                <path d="M109,602.583527 C97.7179506,601.289126 85.9141719,602.146528 73.6052268,605.172328 C52.8050696,610.286316 36.3029674,624.12921 24.5847634,646.352517 C11.2047551,671.737149 7.26004053,701.5941 6.25798916,722.168982 C5.32218912,742.60834 6.97295143,762.895578 10.5477628,776 C21.6365792,760.533574 52.3606336,745.863702 83.7830874,735.917838 C68.443144,648.899831 94.4937191,613.859746 109,602.583527" id="Shape" fill="#B5D9D9"></path>
                <path d="M145,599.293793 C142.229322,597.603985 138.536946,595.576782 134.319483,593.268889 C124.217121,587.748659 111.662485,580.861839 101.412093,573.181149 C99.9736868,572.120766 98.6525872,571.046207 97.376176,570 C94.5691886,576.971877 89.9188064,591.116935 88,598.511264 C106.14068,596.560613 123.178116,599.404368 138.925176,607 C141.064632,603.957778 143.424735,600.839004 145,599.293793" id="Shape" fill="#B5D9D9"></path>
                <path d="M265.3175,566.025292 C273.850582,568.348638 286.047709,589.890661 299,603 C293.283108,595.272763 286.279438,585.102335 278.196183,573.30856 C273.027262,565.725681 268.03282,558.423346 264.753172,554 C258.540107,558.246304 252.411555,571.712451 247,585.235798 C254.614344,574.50428 263.5918,565.543191 265.3175,566.025292" id="Shape" fill="#B5D9D9"></path>
                <path d="M170.034782,417.531067 C173.281053,382.47028 191.213499,358.842658 204.939155,346 C188.125922,355.259623 172.41798,370.422013 162.565018,395.340521 C149.941869,427.300975 161.156259,452.892509 172.796618,468.711375 C183.757655,483.60621 200.2535,496.812964 219.224418,505.898814 C237.410217,514.601259 256.216873,518.84077 272.178169,517.861573 C275.95342,517.632634 279.556057,517.229921 283,516.623095 C237.262659,513.255207 164.825715,473.883193 170.034782,417.531067" id="Shape" fill="#92572A"></path>
                <path d="M406.795725,415.130696 C408.139586,408.574913 402.59512,403.669886 397.715656,400.718533 C396.973069,400.273885 396.510338,399.454065 396.535275,398.603675 C396.704297,386.728786 393.260133,373.336535 387.050663,361.847935 C379.522269,347.885978 366.720952,336.355692 352.639504,330 C349.874197,330.953215 346.981432,331.67021 344,332.137091 C353.778322,337.909182 381.863636,358.582549 380.408941,405.026064 C380.408941,405.026064 397.119924,418.693441 387.751688,433 C398.206097,428.142217 405.388134,422.075547 406.795725,415.130696" id="Shape" fill="#E7D8A7"></path>
                <path d="M320.836143,465.499749 C308.725906,466.144301 316.36639,472.459813 319.288491,472.789005 C321.406036,473.026909 320.973029,489.48652 312,503 C312.701192,502.43567 313.366068,501.84921 314.067261,501.243386 C323.54593,492.756312 328.814651,482.318982 332.694955,473.226084 C333.035774,472.43215 333.776077,471.881652 334.628123,471.773765 C339.06994,471.190071 342.953038,468.855296 345.511971,465.223116 C348.632418,460.824666 349.671635,454.896439 348.579339,448 C343.701722,448.591993 338.282146,449.01524 332.454706,449.264209 C331.817766,455.355648 328.920808,465.048838 320.836143,465.499749" id="Shape" fill="#E7D8A7"></path>
                <path d="M216.836229,510.031653 C197.150825,500.594804 180.018677,486.795245 168.602813,471.196346 C156.237484,454.332373 144.314867,427.06821 157.763312,392.936103 C168.881249,364.689224 188.505397,345.065338 216.073315,334.601481 C218.840966,333.552327 221.591911,332.627742 224.36513,331.80835 C182.747347,340.046562 159.099803,370.073404 156.88067,370.189669 C154.917699,370.29763 152.706919,332.11839 141.870202,284.131361 C138.295088,279.059988 134.5195,273.747781 130.74948,268.679177 C125.765481,261.949643 121.327216,256.249886 118.420348,253 C117.841201,258.065836 118.528937,275.718751 119.099731,284.856633 C119.873782,297.003567 120.647833,309.825945 118.194815,311.190675 C116.900089,311.924252 112.56206,308.760181 107.319116,304.272903 C109.515974,310.576131 111.696125,316.945797 113.698078,323.318231 C114.88143,323.199198 116.081488,323.171515 117.270408,323.224111 C126.330706,323.667026 134.458244,330.748123 134.5195,333.192458 C139.748522,340.755225 133.107831,343.946979 128.767018,340.575291 C125.651323,338.191857 116.045291,332.619438 107.252292,336.622278 C98.6458443,340.542073 93.3416442,349.859889 91,355.886296 C91.0863151,357.619199 91.3452603,359.310579 91.8018948,361.00196 C95.0623768,373.456165 103.031206,381.542125 113.625685,383.197518 C129.955938,385.735972 136.858359,372.404243 138.779566,373.608417 C140.461317,374.679716 136.421215,383.715174 126.158076,387.103471 C130.006057,413.692189 129.880761,466.786578 125.79054,488.273473 C132.333779,492.760751 142.170913,498.27227 156.827768,504.940903 C157.27048,486.380013 155.817046,471.581128 158.083513,474.10851 C186.659368,506.037117 219.503643,516.95773 245,520 C235.73366,517.882315 226.200022,514.530005 216.836229,510.031653 M129.468676,363.393698 C127.188288,364.022084 125.339475,354.457896 119.876566,350.255744 C117.818926,351.365799 115.50791,353.992836 114.764487,357.350682 C113.099441,364.941131 120.310926,368.210395 118.272777,370.305935 C117.103347,371.510109 108.8171,365.674709 110.841328,356.509144 C111.556908,353.231576 113.453055,350.175466 115.850386,348.146363 C110.017158,346.355327 103.788552,350.056432 102.992225,348.730457 C102.407511,347.733899 108.973024,341.018206 118.311758,344.785748 C128.967492,349.054338 131.988519,362.707181 129.468676,363.393698" id="Shape" fill="#EF9C20"></path>
                <path d="M96.8567512,98.1942765 C101.674366,112.049802 109.491523,120.333296 107.628972,121.780146 C106.458622,122.660958 99.1335121,115.10365 94.0935029,102.37468 C88.9700958,110.442804 84.7446055,119.115622 81.5699278,128.255078 C77.1887615,140.859795 74.7563246,153.602571 74.1503003,167.201308 C73.6082144,179.358717 74.5283705,191.946867 76.977487,205.72508 C81.5977271,231.448091 90.660292,256.522229 100.256603,283.062545 C101.729965,287.162875 103.225566,291.301861 104.715607,295.482265 C108.885499,299.356179 112.899715,302.898754 115.963196,305 C116.18003,301.25586 115.540646,289.750087 115.173696,284.062087 C114.556552,274.569202 112.566124,247.120463 116.580339,246.087787 C119.335248,245.38369 127.34422,256.237829 134.421917,265.783176 C136.003696,267.923079 137.602154,270.093354 139.178373,272.274674 C136.053734,260.343681 131.755966,244.431088 128.951019,235.998491 C108.949437,175.923828 108.360093,90.6121178 142,58 C141.107643,58.469398 140.240306,58.9415572 139.389648,59.4440892 C122.270852,69.1136884 107.767968,82.4059359 96.8567512,98.1942765" id="Shape" fill="#EF9C20"></path>
                <path d="M365.26138,318.226482 C370.80342,312.64591 373.467273,305.569198 372.932833,297.784815 C372.426227,290.37377 369.659383,284.921359 364.440234,281.101606 C349.684657,270.269222 320.243092,276.99767 316.922322,277.788925 C315.820038,278.067535 290.949055,284.015874 280.571996,278.791923 C279.761985,280.249057 278.896302,281.647683 278,283.010089 C283.614412,284.907428 299.937125,288.704892 327.889493,285.007728 C340.382047,283.341636 357.205798,286.175107 361.061009,298.6903 C364.980242,311.406092 351.262928,324.336415 335.502491,328.989214 C347.265756,329.234391 358.271896,325.289264 365.26138,318.226482" id="Shape" fill="#E9E74A"></path>
                <path d="M319.043152,608 C321.071428,604.475636 323.461206,600.18232 326,595.535174 C316.192528,582.020004 313.173571,558.761987 312.229802,545.901541 C311.203246,531.868164 311.716524,517.366729 313.388817,508 C310.712045,510.10626 307.855901,511.975706 304.823146,513.63341 C303.661372,525.986794 301.147414,578.439919 319.043152,608" id="Shape" fill="#E9E74A"></path>
                <path d="M333.403398,158.042351 C333.403398,158.042351 318.446335,158.848257 318.819079,165.591832 C319.088901,170.338644 330.588343,170.55743 340.012656,172.628968 C348.816656,174.545417 353.598354,184.443379 351.684562,191.339274 C355.957214,192.740608 360.129726,194.623824 364.152027,197 C368.772388,189.104339 370.099247,182.47708 368.093659,177.267772 C365.517829,170.560199 357.904386,167.740914 354.744404,166.863003 C353.818106,166.588829 353.117124,165.794001 352.991949,164.838546 C352.24646,159.357833 345.993256,133.485766 329.108493,106.879799 C319.787102,92.2017911 308.846776,79.8501088 296.585155,70.159854 C281.694852,58.3786753 264.787835,50.5079396 246.325862,46.7525851 C234.623358,44.3874872 223.146169,43.1301635 212,43 C255.266164,49.0789109 313.3058,78.1579837 333.403398,158.042351" id="Shape" fill="#E9E74A"></path>
                <path d="M240.152169,172.447448 C261.888224,176.829764 264.921162,188.20105 269.361861,182.3733 C272.125748,178.754302 266.434913,162.954685 241.943124,158.60485 C228.20522,156.176846 213.312299,161.474063 212.12467,167.104216 C210.831051,173.416484 219.565695,168.324985 240.152169,172.447448" id="Shape" fill="#E9E74A"></path>
                <path d="M123,472 C122.602672,477.334497 122.100784,482.085321 121.504792,486 C115.48998,480.969556 114,477.5191 114,475.341865 C114,473.009889 115.48998,472 123,472" id="Shape" fill="#B5D9D9"></path>
                <path d="M366.081615,549.170351 C366.669652,553.942371 366.854464,560.04771 367.050476,565.928547 C367.207286,570.621171 367.355695,575.026323 367.658114,578.894863 C368.033338,583.535468 368.741782,588.373196 369.357821,592.646933 C370.094267,597.744754 372.071192,606.883597 370.251077,609.106707 C367.551708,611.302439 358.725553,612.203181 349.031344,608.372971 C343.23218,601.339511 338.082656,595.759834 334,591.913197 C334.543234,590.935795 335.103269,589.92554 335.677305,588.909808 C342.109309,577.506788 358.101114,548.223065 364.40991,542 C364.857938,542.895267 365.560783,544.858284 366.081615,549.170351" id="Shape" fill="#B5D9D9"></path>
                <path d="M206.964446,299.481288 C195.811338,295.265769 181.134874,286.240057 174.5373,267.129891 C168.76268,250.401201 169.312245,235.059159 176.177627,221.526149 C181.76534,210.555241 190.6895,202.388194 199.437911,197 C188.619564,201.846318 175.81776,211.349992 168.595299,225.558263 C161.741076,239.077379 161.183141,254.424979 166.927076,271.153669 C173.541388,290.269393 188.22343,299.303441 199.387697,303.513402 C212.725118,308.534788 228.26638,309.396232 240.951018,305.819849 C246.708901,304.191442 252.084598,301.787735 257,298.72544 C254.28286,299.931462 251.459712,300.948521 248.541715,301.768283 C235.851498,305.364118 220.296288,304.494337 206.964446,299.481288" id="Shape" fill="#B5D9D9"></path>
                <path d="M315,195 C299.038243,200.03022 287.010879,210.623626 281,219.733516 C281.759416,221.123626 282.485206,222.541209 283.154949,224 C289.286327,215.736264 296.364873,205.32967 315,195" id="Shape" fill="#B5D9D9"></path>
                <path d="M283,275.413804 C289.006674,278.512639 305.427856,276.539377 315.660428,274.021573 C316.71897,273.76053 318.576931,273.336686 321,272.867931 C298.492202,275.206092 288.84679,272.045504 285.541603,269 C284.797316,271.166939 283.95379,273.311423 283,275.413804" id="Shape" fill="#B5D9D9"></path>
            </g>
        </g>
    </g>
</svg>